<svg width="1024" height="1024" viewBox="0 0 1024 1024" fill="none" xmlns="http://www.w3.org/2000/svg">
  <rect x="72" y="72" width="880" height="880" rx="212" fill="#FFFFFF" stroke="#E5E7EB" stroke-width="12"/>

  <rect x="292" y="196" width="452" height="340" rx="88" fill="#FFFFFF" stroke="#E7E7E7" stroke-width="12"/>
  <rect x="344" y="244" width="420" height="314" rx="80" fill="#FAFAFA" stroke="#ECECEC" stroke-width="10"/>

  <rect x="208" y="288" width="608" height="520" rx="108" fill="#FFFFFF" stroke="#D4D4D8" stroke-width="12"/>

  <path d="M300 398H398C476 398 530 452 530 548C530 644 476 698 398 698H300V398Z" fill="#111111"/>
  <path d="M382 470H398C430 470 452 496 452 548C452 600 430 626 398 626H382V470Z" fill="#FFFFFF"/>

  <path d="M522 398H620C702 398 758 452 758 548C758 644 702 698 620 698H522V398Z" fill="#8C8C91"/>
  <path d="M604 470H620C652 470 676 496 676 548C676 600 652 626 620 626H604V470Z" fill="#FFFFFF"/>
</svg>
