<svg width="1024" height="1024" viewBox="0 0 1024 1024" fill="none" xmlns="http://www.w3.org/2000/svg">
  <defs>
    <linearGradient id="bg" x1="120" y1="96" x2="912" y2="944" gradientUnits="userSpaceOnUse">
      <stop stop-color="#07111F"/>
      <stop offset="0.56" stop-color="#102A67"/>
      <stop offset="1" stop-color="#2563EB"/>
    </linearGradient>
    <linearGradient id="card" x1="312" y1="232" x2="780" y2="700" gradientUnits="userSpaceOnUse">
      <stop stop-color="#93C5FD" stop-opacity="0.34"/>
      <stop offset="1" stop-color="#C4B5FD" stop-opacity="0.12"/>
    </linearGradient>
    <linearGradient id="accent" x1="520" y1="404" x2="724" y2="648" gradientUnits="userSpaceOnUse">
      <stop stop-color="#7DD3FC"/>
      <stop offset="1" stop-color="#60A5FA"/>
    </linearGradient>
  </defs>

  <rect x="72" y="72" width="880" height="880" rx="212" fill="url(#bg)"/>

  <rect x="292" y="196" width="452" height="340" rx="88" fill="url(#card)" stroke="#F8FAFC" stroke-opacity="0.12" stroke-width="12"/>
  <rect x="344" y="244" width="420" height="314" rx="80" fill="#8B5CF6" fill-opacity="0.12"/>
  <circle cx="382" cy="306" r="12" fill="#E2E8F0" fill-opacity="0.82"/>
  <rect x="414" y="292" width="182" height="28" rx="14" fill="#E2E8F0" fill-opacity="0.34"/>
  <circle cx="382" cy="374" r="12" fill="#E2E8F0" fill-opacity="0.66"/>
  <rect x="414" y="360" width="222" height="28" rx="14" fill="#E2E8F0" fill-opacity="0.24"/>
  <circle cx="382" cy="442" r="12" fill="#E2E8F0" fill-opacity="0.52"/>
  <rect x="414" y="428" width="154" height="28" rx="14" fill="#E2E8F0" fill-opacity="0.2"/>

  <rect x="208" y="288" width="608" height="520" rx="108" fill="#081224"/>
  <rect x="208" y="288" width="608" height="520" rx="108" stroke="#F8FAFC" stroke-opacity="0.08" stroke-width="10"/>
  <circle cx="280" cy="356" r="10" fill="#F8FAFC" fill-opacity="0.72"/>
  <circle cx="316" cy="356" r="10" fill="#7DD3FC" fill-opacity="0.76"/>
  <circle cx="352" cy="356" r="10" fill="#C4B5FD" fill-opacity="0.72"/>

  <path d="M300 398H398C476 398 530 452 530 548C530 644 476 698 398 698H300V398Z" fill="#F8FAFC"/>
  <path d="M382 470H398C430 470 452 496 452 548C452 600 430 626 398 626H382V470Z" fill="#081224"/>

  <path d="M522 398H620C702 398 758 452 758 548C758 644 702 698 620 698H522V398Z" fill="url(#accent)"/>
  <path d="M604 470H620C652 470 676 496 676 548C676 600 652 626 620 626H604V470Z" fill="#081224"/>

  <path d="M248 746C288 712 332 695 378 695" stroke="#F8FAFC" stroke-opacity="0.34" stroke-width="18" stroke-linecap="round"/>
  <circle cx="238" cy="756" r="18" fill="#F8FAFC"/>
  <circle cx="390" cy="694" r="18" fill="#7DD3FC"/>
</svg>
