<svg width="1024" height="1024" viewBox="0 0 1024 1024" xmlns="http://www.w3.org/2000/svg">
  <defs>
    <linearGradient id="bg" x1="120" y1="80" x2="900" y2="960" gradientUnits="userSpaceOnUse">
      <stop stop-color="#0F172A"/>
      <stop offset="1" stop-color="#155EEF"/>
    </linearGradient>
    <linearGradient id="accent" x1="240" y1="220" x2="780" y2="820" gradientUnits="userSpaceOnUse">
      <stop stop-color="#F8FAFC"/>
      <stop offset="1" stop-color="#DCE7FF"/>
    </linearGradient>
  </defs>
  <rect x="72" y="72" width="880" height="880" rx="212" fill="url(#bg)"/>
  <path d="M324 256H536C648 256 736 344 736 456C736 568 648 656 536 656H444V768H324V256ZM444 560H528C582 560 620 522 620 468C620 414 582 376 528 376H444V560Z" fill="url(#accent)"/>
  <path d="M520 300H668C754 300 816 362 816 448C816 506 786 553 736 580C792 606 828 660 828 730C828 822 760 888 668 888H520V780H648C700 780 736 744 736 692C736 640 700 604 648 604H564V496H636C684 496 716 464 716 416C716 368 684 336 636 336H520V300Z" fill="#84A6FF" fill-opacity="0.88"/>
  <circle cx="764" cy="248" r="52" fill="#F8FAFC" fill-opacity="0.18"/>
  <circle cx="246" cy="794" r="36" fill="#F8FAFC" fill-opacity="0.12"/>
</svg>
